<svg width="30" height="30" viewBox="0 0 30 30" fill="none" xmlns="http://www.w3.org/2000/svg">
<path d="M18 5.25C18 4.65326 18.2371 4.08097 18.659 3.65901C19.081 3.23705 19.6533 3 20.25 3H23.25C23.8467 3 24.419 3.23705 24.841 3.65901C25.2629 4.08097 25.5 4.65326 25.5 5.25V24.75C25.5 25.3467 25.2629 25.919 24.841 26.341C24.419 26.7629 23.8467 27 23.25 27H20.25C19.6533 27 19.081 26.7629 18.659 26.341C18.2371 25.919 18 25.3467 18 24.75V5.25Z" fill="black"/>
<path d="M4.5 5.25C4.5 4.65326 4.73705 4.08097 5.15901 3.65901C5.58097 3.23705 6.15326 3 6.75 3H9.75C10.3467 3 10.919 3.23705 11.341 3.65901C11.7629 4.08097 12 4.65326 12 5.25V24.75C12 25.3467 11.7629 25.919 11.341 26.341C10.919 26.7629 10.3467 27 9.75 27H6.75C6.15326 27 5.58097 26.7629 5.15901 26.341C4.73705 25.919 4.5 25.3467 4.5 24.75V5.25Z" fill="black"/>
</svg>
